<svg width="24" height="24" viewBox="0 0 24 24" fill="none" xmlns="http://www.w3.org/2000/svg">
<g clip-path="url(#clip0_2319_303)">
<path d="M3.24 0.200195C2.36002 0.200195 1.56 0.520211 0.96 1.12021C0.320016 1.7602 0 2.56016 0 3.40016C0 4.28015 0.36 5.08016 0.96 5.68016C1.56 6.28016 2.4 6.64016 3.20002 6.60018C3.20002 6.60018 3.24 6.60018 3.28003 6.60018C4.08005 6.60018 4.84003 6.28016 5.44003 5.68016C6.04003 5.08016 6.40003 4.28015 6.40003 3.40016C6.44002 2.56016 6.08002 1.76015 5.48002 1.16015C4.88002 0.520164 4.08 0.200195 3.24 0.200195ZM4.88002 5.1202C4.44 5.56021 3.84 5.8402 3.20002 5.80021C2.60002 5.80021 1.96003 5.56021 1.52002 5.1202C1.04002 4.68018 0.800016 4.0402 0.800016 3.40021C0.800016 2.76023 1.04002 2.16023 1.52002 1.68023C1.96003 1.24021 2.56003 1.00021 3.24 1.00021C3.84 1.00021 4.44 1.24021 4.88002 1.68023C5.36002 2.16023 5.60002 2.76023 5.60002 3.40021C5.60002 4.0402 5.36002 4.68018 4.88002 5.1202Z" fill="#A3A3A3"/>
<path d="M4.80041 7.40039H1.56041C0.920422 7.40039 0.400391 7.92037 0.400391 8.60039V22.6004C0.400391 23.2404 0.960406 23.8004 1.60039 23.8004H4.80041C5.44039 23.8004 6.00041 23.2404 6.00041 22.6404V8.60039C6.00041 7.96036 5.44039 7.40039 4.80041 7.40039ZM5.20039 22.6404C5.20039 22.8404 5.00038 23.0004 4.80041 23.0004H1.60039C1.40037 23.0004 1.20041 22.8004 1.20041 22.6004V8.60039C1.20041 8.40037 1.36039 8.20041 1.56041 8.20041H4.80041C5.00042 8.20041 5.20039 8.40042 5.20039 8.60039V22.6404Z" fill="#A3A3A3"/>
<path d="M18.4009 7H17.5609C16.0009 7 14.521 7.68002 13.561 8.76002V8.2C13.561 7.80002 13.161 7.39998 12.7609 7.39998H8.76095C8.40095 7.39998 7.96094 7.72 7.96094 8.15997V23.08C7.96094 23.52 8.40095 23.8 8.76095 23.8H13.161C13.521 23.8 13.961 23.52 13.961 23.08V14.44C13.961 13.12 14.921 12.0799 16.161 12.0799C16.801 12.0799 17.401 12.3199 17.841 12.76C18.241 13.12 18.401 13.68 18.401 14.4V23C18.401 23.4 18.801 23.8 19.201 23.8H23.201C23.601 23.8 24.001 23.4 24.001 23V12.68C24.001 9.48002 21.561 7 18.4009 7ZM23.2009 22.96L23.161 23H19.2409L19.201 14.4C19.201 13.44 18.961 12.72 18.441 12.2C17.841 11.6 17.041 11.28 16.201 11.28C14.521 11.32 13.201 12.68 13.201 14.44V23H8.80094V8.2H12.7609L12.8009 8.23998V10.76L13.8809 9.67998L13.9209 9.64C14.7209 8.52002 16.1209 7.80002 17.6009 7.80002H18.4409C21.1209 7.80002 23.2009 9.96002 23.2009 12.68V22.96Z" fill="#A3A3A3"/>
</g>
<defs>
<clipPath id="clip0_2319_303">
<rect width="24" height="24" fill="white"/>
</clipPath>
</defs>
</svg>
