<svg width="25" height="19" viewBox="0 0 25 19" fill="none" xmlns="http://www.w3.org/2000/svg">
<path d="M23.5157 3.02954L11.4283 0.379838C11.107 0.31523 10.7731 0.379412 10.4987 0.558561C10.2242 0.737711 10.0311 1.01749 9.96091 1.33765C9.89073 1.65781 9.9491 1.99272 10.1235 2.27026C10.2978 2.54779 10.5742 2.74575 10.8931 2.82148L20.0328 4.82503L1.521 16.6801C1.24182 16.8589 1.0451 17.1412 0.97411 17.4651C0.903122 17.7889 0.963683 18.1277 1.14247 18.4068C1.32126 18.686 1.60363 18.8827 1.92746 18.9537C2.25129 19.0247 2.59006 18.9642 2.86923 18.7854L21.3811 6.93033L19.3775 16.0701C19.3392 16.2316 19.3334 16.3991 19.3604 16.5628C19.3875 16.7266 19.4469 16.8833 19.5352 17.0239C19.6235 17.1644 19.7389 17.286 19.8747 17.3814C20.0105 17.4769 20.1639 17.5444 20.326 17.5799C20.4882 17.6155 20.6558 17.6184 20.819 17.5885C20.9823 17.5585 21.1379 17.4964 21.2769 17.4057C21.4159 17.315 21.5355 17.1975 21.6286 17.06C21.7217 16.9226 21.7865 16.7681 21.8192 16.6053L24.4689 4.51798C24.5398 4.1942 24.4792 3.85551 24.3005 3.57639C24.1217 3.29726 23.8394 3.10056 23.5157 3.02954Z" fill="white"/>
</svg>
