<svg width="20" height="14" viewBox="0 0 20 14" fill="none" xmlns="http://www.w3.org/2000/svg">
<path d="M18.9232 6.41089L13.0898 0.577555C12.9326 0.425756 12.7221 0.341761 12.5037 0.343659C12.2852 0.345558 12.0761 0.433199 11.9216 0.587706C11.7671 0.742213 11.6795 0.951223 11.6776 1.16972C11.6757 1.38822 11.7597 1.59872 11.9115 1.75589L16.3223 6.16672H1.66732C1.4463 6.16672 1.23434 6.25452 1.07806 6.4108C0.921782 6.56708 0.833984 6.77904 0.833984 7.00005C0.833984 7.22107 0.921782 7.43303 1.07806 7.58931C1.23434 7.74559 1.4463 7.83339 1.66732 7.83339H16.3223L11.9115 12.2442C11.8319 12.3211 11.7684 12.413 11.7247 12.5147C11.6811 12.6164 11.6581 12.7257 11.6571 12.8364C11.6561 12.947 11.6772 13.0568 11.7191 13.1592C11.761 13.2616 11.8229 13.3546 11.9012 13.4329C11.9794 13.5111 12.0724 13.573 12.1749 13.6149C12.2773 13.6568 12.387 13.6779 12.4977 13.6769C12.6083 13.676 12.7177 13.653 12.8193 13.6093C12.921 13.5656 13.0129 13.5021 13.0898 13.4226L18.9232 7.58922C19.0794 7.43295 19.1671 7.22102 19.1671 7.00005C19.1671 6.77908 19.0794 6.56716 18.9232 6.41089Z" fill="white"/>
</svg>
